#
# Bunkspeed OBJ File
# http://www.bunkspeed.com
#
mtllib tableLegs.mtl

##########################
g Root|tableLegs_(Default)|Default|unfinished_mahogany_2d
##########################
v -0.0566043 0.05 0
v -0.0566043 0.05 -0.75
v -0.0566043 -0.05 0
v -0.0566043 -0.05 -0.75
v 0.0433957 0.05 0
v -0.0566043 0.05 0
v 0.0433957 -0.05 0
v -0.0566043 -0.05 0
v 0.0433957 0.05 -0.1875
v 0.0433957 0.05 0
v 0.0433957 -0.05 -0.1875
v 0.0433957 -0.05 0
v 1.307396 0.05 -0.1875
v 0.0433957 0.05 -0.1875
v 1.307396 -0.05 -0.1875
v 0.0433957 -0.05 -0.1875
v 0.0433957 0.05 -0.2875
v 1.307396 0.05 -0.2875
v 0.0433957 -0.05 -0.2875
v 1.307396 -0.05 -0.2875
v 0.0433957 0.05 -0.75
v 0.0433957 0.05 -0.2875
v 0.0433957 -0.05 -0.75
v 0.0433957 -0.05 -0.2875
v -0.0566043 0.05 -0.75
v 0.0433957 0.05 -0.75
v -0.0566043 -0.05 -0.75
v 0.0433957 -0.05 -0.75
v 1.307396 0.05 -0.1875
v 1.307396 0.05 0
v 1.407396 0.05 0
v -0.0566043 0.05 -0.75
v -0.0566043 0.05 0
v 0.0433957 0.05 -0.1875
v 0.0433957 0.05 0
v 1.407396 0.05 -0.75
v 1.307396 0.05 -0.75
v 1.307396 0.05 -0.2875
v 0.0433957 0.05 -0.75
v -0.0566043 0.05 -0.75
v 0.0433957 0.05 -0.2875
v 0.0433957 0.05 -0.1875
v 1.307396 0.05 -0.2875
v 1.307396 0.05 -0.1875
v 1.407396 0.05 -0.75
v 1.407396 0.05 0
v 1.307396 -0.05 -0.2875
v 1.307396 -0.05 -0.75
v 1.407396 -0.05 -0.75
v -0.0566043 -0.05 -0.75
v 0.0433957 -0.05 -0.75
v -0.0566043 -0.05 0
v 0.0433957 -0.05 -0.2875
v 1.407396 -0.05 0
v 1.307396 -0.05 0
v 1.307396 -0.05 -0.1875
v 0.0433957 -0.05 0
v -0.0566043 -0.05 0
v 0.0433957 -0.05 -0.1875
v 0.0433957 -0.05 -0.2875
v 1.307396 -0.05 -0.1875
v 1.307396 -0.05 -0.2875
v 1.407396 -0.05 0
v 1.407396 -0.05 -0.75
v 1.407396 0.05 -0.75
v 1.407396 0.05 0
v 1.407396 -0.05 -0.75
v 1.407396 -0.05 0
v 1.307396 0.05 -0.75
v 1.407396 0.05 -0.75
v 1.307396 -0.05 -0.75
v 1.407396 -0.05 -0.75
v 1.307396 0.05 -0.2875
v 1.307396 0.05 -0.75
v 1.307396 -0.05 -0.2875
v 1.307396 -0.05 -0.75
v 1.307396 0.05 0
v 1.307396 0.05 -0.1875
v 1.307396 -0.05 0
v 1.307396 -0.05 -0.1875
v 1.407396 0.05 0
v 1.307396 0.05 0
v 1.407396 -0.05 0
v 1.307396 -0.05 0
vt 0.4707124 1.719658
vt 0.4707124 1.280343
vt 0.5292877 1.719658
vt 0.5292877 1.280343
vt -0.2989675 1.529288
vt -0.3575428 1.529288
vt -0.2989675 1.470712
vt -0.3575428 1.470712
vt 0.5292877 1.609829
vt 0.5292877 1.719658
vt 0.4707124 1.609829
vt 0.4707124 1.719658
vt 0.4414247 1.529288
vt -0.2989675 1.529288
vt 0.4414247 1.470712
vt -0.2989675 1.470712
vt 1.298967 1.529288
vt 0.5585753 1.529288
vt 1.298967 1.470712
vt 0.5585753 1.470712
vt 0.5292877 1.280343
vt 0.5292877 1.551253
vt 0.4707124 1.280343
vt 0.4707124 1.551253
vt 1.357543 1.529288
vt 1.298967 1.529288
vt 1.357543 1.470712
vt 1.298967 1.470712
vt 0.5585753 1.609829
vt 0.5585753 1.719658
vt 0.5 1.719658
vt 1.357543 1.280343
vt 1.357543 1.719658
vt 1.298967 1.609829
vt 1.298967 1.719658
vt 0.5 1.280343
vt 0.5585753 1.280343
vt 0.5585753 1.551253
vt 1.298967 1.280343
vt 1.357543 1.280343
vt 1.298967 1.551253
vt 1.298967 1.609829
vt 0.5585753 1.551253
vt 0.5585753 1.609829
vt 0.5 1.280343
vt 0.5 1.719658
vt 0.4414247 1.551253
vt 0.4414247 1.280343
vt 0.5 1.280343
vt -0.3575428 1.280343
vt -0.2989675 1.280343
vt -0.3575428 1.719658
vt -0.2989675 1.551253
vt 0.5 1.719658
vt 0.4414247 1.719658
vt 0.4414247 1.609829
vt -0.2989675 1.719658
vt -0.3575428 1.719658
vt -0.2989675 1.609829
vt -0.2989675 1.551253
vt 0.4414247 1.609829
vt 0.4414247 1.551253
vt 0.5 1.719658
vt 0.5 1.280343
vt 0.5292877 1.280343
vt 0.5292877 1.719658
vt 0.4707124 1.280343
vt 0.4707124 1.719658
vt 0.5585753 1.529288
vt 0.5 1.529288
vt 0.5585753 1.470712
vt 0.5 1.470712
vt 0.4707124 1.551253
vt 0.4707124 1.280343
vt 0.5292877 1.551253
vt 0.5292877 1.280343
vt 0.4707124 1.719658
vt 0.4707124 1.609829
vt 0.5292877 1.719658
vt 0.5292877 1.609829
vt 0.5 1.529288
vt 0.4414247 1.529288
vt 0.5 1.470712
vt 0.4414247 1.470712
vn -1 0 0
vn -1 0 0
vn -1 0 0
vn -1 0 0
vn 0 0 1
vn 0 0 1
vn 0 0 1
vn 0 0 1
vn 1 0 0
vn 1 0 0
vn 1 0 0
vn 1 0 0
vn 0 0 1
vn 0 0 1
vn 0 0 1
vn 0 0 1
vn 0 0 -1
vn 0 0 -1
vn 0 0 -1
vn 0 0 -1
vn 1 0 0
vn 1 0 0
vn 1 0 0
vn 1 0 0
vn 0 0 -1
vn 0 0 -1
vn 0 0 -1
vn 0 0 -1
vn 0 1 0
vn 0 1 0
vn 0 1 0
vn 0 1 0
vn 0 1 0
vn 0 1 0
vn 0 1 0
vn 0 1 0
vn 0 1 0
vn 0 1 0
vn 0 1 0
vn 0 1 0
vn 0 1 0
vn 0 1 0
vn 0 1 0
vn 0 1 0
vn 0 1 0
vn 0 1 0
vn 0 -1 0
vn 0 -1 0
vn 0 -1 0
vn 0 -1 0
vn 0 -1 0
vn 0 -1 0
vn 0 -1 0
vn 0 -1 0
vn 0 -1 0
vn 0 -1 0
vn 0 -1 0
vn 0 -1 0
vn 0 -1 0
vn 0 -1 0
vn 0 -1 0
vn 0 -1 0
vn 0 -1 0
vn 0 -1 0
vn 1 0 0
vn 1 0 0
vn 1 0 0
vn 1 0 0
vn 0 0 -1
vn 0 0 -1
vn 0 0 -1
vn 0 0 -1
vn -1 0 0
vn -1 0 0
vn -1 0 0
vn -1 0 0
vn -1 0 0
vn -1 0 0
vn -1 0 0
vn -1 0 0
vn 0 0 1
vn 0 0 1
vn 0 0 1
vn 0 0 1
usemtl unfinished_mahogany_2d
f 1/1/1 2/2/2 3/3/3
f 2/2/2 4/4/4 3/3/3
f 5/5/5 6/6/6 7/7/7
f 6/6/6 8/8/8 7/7/7
f 9/9/9 10/10/10 11/11/11
f 10/10/10 12/12/12 11/11/11
f 13/13/13 14/14/14 15/15/15
f 14/14/14 16/16/16 15/15/15
f 17/17/17 18/18/18 19/19/19
f 18/18/18 20/20/20 19/19/19
f 21/21/21 22/22/22 23/23/23
f 22/22/22 24/24/24 23/23/23
f 25/25/25 26/26/26 27/27/27
f 26/26/26 28/28/28 27/27/27
f 29/29/29 30/30/30 31/31/31
f 32/32/32 33/33/33 34/34/34
f 33/33/33 35/35/35 34/34/34
f 36/36/36 37/37/37 38/38/38
f 39/39/39 40/40/40 41/41/41
f 40/40/40 42/42/42 41/41/41
f 41/41/41 42/42/42 43/43/43
f 42/42/42 44/44/44 43/43/43
f 43/43/43 44/44/44 45/45/45
f 44/44/44 46/46/46 45/45/45
f 47/47/47 48/48/48 49/49/49
f 50/50/50 51/51/51 52/52/52
f 51/51/51 53/53/53 52/52/52
f 54/54/54 55/55/55 56/56/56
f 57/57/57 58/58/58 59/59/59
f 58/58/58 60/60/60 59/59/59
f 59/59/59 60/60/60 61/61/61
f 60/60/60 62/62/62 61/61/61
f 61/61/61 62/62/62 63/63/63
f 62/62/62 64/64/64 63/63/63
f 65/65/65 66/66/66 67/67/67
f 66/66/66 68/68/68 67/67/67
f 69/69/69 70/70/70 71/71/71
f 70/70/70 72/72/72 71/71/71
f 73/73/73 74/74/74 75/75/75
f 74/74/74 76/76/76 75/75/75
f 77/77/77 78/78/78 79/79/79
f 78/78/78 80/80/80 79/79/79
f 81/81/81 82/82/82 83/83/83
f 82/82/82 84/84/84 83/83/83
##########################

