#
# Bunkspeed OBJ File
# http://www.bunkspeed.com
#
mtllib Beam.mtl

##########################
g Root|Beam_(Default)|Default|unfinished_mahogany_2d
##########################
v 0.09390424 0.005 -0.01406928
v 0.09390424 0.005 0.01406928
v 0.09390424 -0.005 -0.01406928
v 0.09390424 -0.005 0.01406928
v -0.09390424 0.005 -0.01406928
v 0.09390424 0.005 -0.01406928
v -0.09390424 -0.005 -0.01406928
v 0.09390424 -0.005 -0.01406928
v -0.09390424 0.005 0.01406928
v -0.09390424 0.005 -0.01406928
v -0.09390424 -0.005 0.01406928
v -0.09390424 -0.005 -0.01406928
v 0.09390424 0.005 0.01406928
v -0.09390424 0.005 0.01406928
v 0.09390424 -0.005 0.01406928
v -0.09390424 -0.005 0.01406928
v -0.09390424 0.005 -0.01406928
v -0.09390424 0.005 0.01406928
v 0.09390424 0.005 -0.01406928
v 0.09390424 0.005 0.01406928
v -0.09390424 -0.005 0.01406928
v -0.09390424 -0.005 -0.01406928
v 0.09390424 -0.005 0.01406928
v 0.09390424 -0.005 -0.01406928
vt 0.548456 1.363652
vt 0.548456 1.636348
vt 0.4515439 1.363652
vt 0.4515439 1.636348
vt 1.410046 1.548456
vt -0.4100455 1.548456
vt 1.410046 1.451544
vt -0.4100455 1.451544
vt 0.4515439 1.636348
vt 0.4515439 1.363652
vt 0.548456 1.636348
vt 0.548456 1.363652
vt 1.410046 1.548456
vt -0.4100455 1.548456
vt 1.410046 1.451544
vt -0.4100455 1.451544
vt 1.410046 1.363652
vt 1.410046 1.636348
vt -0.4100455 1.363652
vt -0.4100455 1.636348
vt -0.4100455 1.636348
vt -0.4100455 1.363652
vt 1.410046 1.636348
vt 1.410046 1.363652
vn 1 0 0
vn 1 0 0
vn 1 0 0
vn 1 0 0
vn 0 0 -1
vn 0 0 -1
vn 0 0 -1
vn 0 0 -1
vn -1 0 0
vn -1 0 0
vn -1 0 0
vn -1 0 0
vn 0 0 1
vn 0 0 1
vn 0 0 1
vn 0 0 1
vn 0 1 0
vn 0 1 0
vn 0 1 0
vn 0 1 0
vn 0 -1 0
vn 0 -1 0
vn 0 -1 0
vn 0 -1 0
usemtl unfinished_mahogany_2d
f 1/1/1 2/2/2 3/3/3
f 2/2/2 4/4/4 3/3/3
f 5/5/5 6/6/6 7/7/7
f 6/6/6 8/8/8 7/7/7
f 9/9/9 10/10/10 11/11/11
f 10/10/10 12/12/12 11/11/11
f 13/13/13 14/14/14 15/15/15
f 14/14/14 16/16/16 15/15/15
f 17/17/17 18/18/18 19/19/19
f 18/18/18 20/20/20 19/19/19
f 21/21/21 22/22/22 23/23/23
f 22/22/22 24/24/24 23/23/23
##########################

